<svg width="126" height="16" viewBox="0 0 126 16" fill="none" xmlns="http://www.w3.org/2000/svg">
<path d="M6.98 15.02C6.60667 15.02 6.34667 14.8267 6.2 14.44C6.05333 14.0533 5.93333 13.5333 5.84 12.88L5.78 12.38C5.58 11.3133 5.42 10.2533 5.3 9.2C5.18 8.13333 5.06 6.84667 4.94 5.34L4.82 3.86C4.02 3.87333 2.88 3.84 1.4 3.76L1 3.74C0.813333 3.72667 0.68 3.64 0.6 3.48C0.533333 3.30667 0.5 3.07333 0.5 2.78H1.88C4.2 2.78 6.29333 2.86667 8.16 3.04C10.0267 3.21333 10.96 3.56667 10.96 4.1C10.96 4.24667 10.9333 4.34667 10.88 4.4C10.84 4.45333 10.7467 4.48 10.6 4.48C10.0667 4.44 9.24 4.32667 8.12 4.14C7.86667 4.1 7.56 4.05333 7.2 4C6.84 3.94667 6.43333 3.89333 5.98 3.84C5.98 5.77333 6.26667 8.74667 6.84 12.76C6.86667 12.96 6.96 13.2467 7.12 13.62C7.18667 13.78 7.24667 13.9533 7.3 14.14C7.36667 14.3133 7.4 14.4733 7.4 14.62C7.4 14.8067 7.37333 14.92 7.32 14.96C7.26667 15 7.2 15.02 7.12 15.02C7.05333 15.02 7.00667 15.02 6.98 15.02ZM15.6041 15.02C14.8174 15.02 14.1041 14.8467 13.4641 14.5C12.8374 14.14 12.3441 13.6467 11.9841 13.02C11.6374 12.38 11.4641 11.6533 11.4641 10.84C11.4641 9.50667 11.9507 8.51333 12.9241 7.86C13.9107 7.20667 15.1174 6.88 16.5441 6.88C17.1974 6.88 17.8041 7.04 18.3641 7.36C18.9374 7.68 19.3974 8.14 19.7441 8.74C20.0907 9.34 20.2641 10.0333 20.2641 10.82C20.2641 11.6733 20.0441 12.42 19.6041 13.06C19.1641 13.6867 18.5841 14.1733 17.8641 14.52C17.1574 14.8533 16.4041 15.02 15.6041 15.02ZM15.3841 13.88C16.6241 13.88 17.5641 13.6 18.2041 13.04C18.8441 12.48 19.1641 11.66 19.1641 10.58C19.1641 9.84667 18.9107 9.21333 18.4041 8.68C17.9107 8.14667 17.2174 7.88 16.3241 7.88C15.7241 7.88 15.1174 7.99333 14.5041 8.22C13.8907 8.44667 13.3841 8.78667 12.9841 9.24C12.5841 9.69333 12.3841 10.24 12.3841 10.88C12.3841 11.4133 12.5174 11.9133 12.7841 12.38C13.0507 12.8333 13.4107 13.2 13.8641 13.48C14.3307 13.7467 14.8374 13.88 15.3841 13.88ZM25.9947 15.02C25.208 15.02 24.4947 14.8467 23.8547 14.5C23.228 14.14 22.7347 13.6467 22.3747 13.02C22.028 12.38 21.8547 11.6533 21.8547 10.84C21.8547 9.50667 22.3414 8.51333 23.3147 7.86C24.3014 7.20667 25.508 6.88 26.9347 6.88C27.588 6.88 28.1947 7.04 28.7547 7.36C29.328 7.68 29.788 8.14 30.1347 8.74C30.4814 9.34 30.6547 10.0333 30.6547 10.82C30.6547 11.6733 30.4347 12.42 29.9947 13.06C29.5547 13.6867 28.9747 14.1733 28.2547 14.52C27.548 14.8533 26.7947 15.02 25.9947 15.02ZM25.7747 13.88C27.0147 13.88 27.9547 13.6 28.5947 13.04C29.2347 12.48 29.5547 11.66 29.5547 10.58C29.5547 9.84667 29.3014 9.21333 28.7947 8.68C28.3014 8.14667 27.608 7.88 26.7147 7.88C26.1147 7.88 25.508 7.99333 24.8947 8.22C24.2814 8.44667 23.7747 8.78667 23.3747 9.24C22.9747 9.69333 22.7747 10.24 22.7747 10.88C22.7747 11.4133 22.908 11.9133 23.1747 12.38C23.4414 12.8333 23.8014 13.2 24.2547 13.48C24.7214 13.7467 25.228 13.88 25.7747 13.88ZM32.7398 14.86C32.4465 13.4067 32.2198 11.6867 32.0598 9.7C31.9132 7.7 31.8398 5.76667 31.8398 3.9C31.8398 2.96667 31.8598 2.14 31.8998 1.42C31.8998 1.24667 32.0332 1.16 32.2998 1.16C32.5132 1.16 32.6465 1.21333 32.6998 1.32C32.7665 1.42667 32.7998 1.59333 32.7998 1.82C32.7998 3.98 32.8398 5.82667 32.9198 7.36C32.9998 8.88 33.1065 10.52 33.2398 12.28C33.3198 13.4133 33.3732 14.18 33.3998 14.58C33.4132 14.7933 33.2998 14.9 33.0598 14.9C32.9798 14.9 32.8732 14.8867 32.7398 14.86ZM35.0992 12.64C35.2859 12.4933 35.4659 12.42 35.6392 12.42C35.7992 12.42 35.9526 12.4667 36.0992 12.56C36.2592 12.6533 36.4192 12.7733 36.5792 12.92C36.7392 13.0533 36.8659 13.1533 36.9592 13.22C37.2659 13.46 37.6859 13.6467 38.2192 13.78C38.7526 13.9133 39.3192 13.98 39.9192 13.98C40.5992 13.98 41.2059 13.8533 41.7392 13.6C42.2859 13.3333 42.5592 12.98 42.5592 12.54C42.5592 12.14 42.4126 11.8267 42.1192 11.6C41.8259 11.36 41.4726 11.1867 41.0592 11.08C40.6459 10.9733 40.0992 10.8733 39.4192 10.78C38.4992 10.6733 37.7659 10.54 37.2192 10.38C36.6859 10.22 36.2592 9.96 35.9392 9.6C35.6192 9.22667 35.4592 8.70667 35.4592 8.04C35.4592 7.32 35.7992 6.78667 36.4792 6.44C37.1592 6.08 37.9392 5.9 38.8192 5.9C39.6192 5.9 40.2992 6.07333 40.8592 6.42C41.4326 6.75333 41.7259 7.23333 41.7392 7.86C41.7659 8.22 41.7126 8.50667 41.5792 8.72C41.4459 8.92 41.2859 9.02 41.0992 9.02C40.9926 9.02 40.8992 8.98 40.8192 8.9C40.7526 8.82 40.7192 8.71333 40.7192 8.58C40.7192 8.36667 40.7926 8.13333 40.9392 7.88C40.8726 7.56 40.6526 7.32 40.2792 7.16C39.9192 7 39.4859 6.92 38.9792 6.92C38.2326 6.92 37.6392 7.06 37.1992 7.34C36.7592 7.60667 36.5392 7.92667 36.5392 8.3C36.5392 8.7 36.6992 9.00667 37.0192 9.22C37.3392 9.43333 37.7259 9.58667 38.1792 9.68C38.6459 9.76 39.3059 9.84 40.1592 9.92C40.8659 10.0133 41.4392 10.1267 41.8792 10.26C42.3326 10.3933 42.7126 10.6533 43.0192 11.04C43.3259 11.4133 43.4792 11.9533 43.4792 12.66C43.4792 13.3933 43.1392 13.9733 42.4592 14.4C41.7792 14.8133 40.9659 15.02 40.0192 15.02C38.8059 15.02 37.7192 14.8133 36.7592 14.4C35.8126 13.9867 35.2592 13.4 35.0992 12.64ZM55.095 0.919999C55.695 0.919999 56.2683 1.07333 56.815 1.38C57.3617 1.67333 57.8017 2.05333 58.135 2.52C58.4817 2.98667 58.655 3.45333 58.655 3.92H58.215C58.015 3.92 57.835 3.86 57.675 3.74C57.5283 3.62 57.335 3.42667 57.095 3.16C56.7483 2.78667 56.435 2.50667 56.155 2.32C55.8883 2.13333 55.5417 2.04 55.115 2.04C54.3817 2.04 53.7683 2.38 53.275 3.06C52.7817 3.72667 52.4883 4.51333 52.395 5.42C52.355 5.83333 52.335 6.24667 52.335 6.66C52.335 7.34 52.3817 7.96667 52.475 8.54C52.6483 8.56667 53.055 8.6 53.695 8.64C54.335 8.68 54.8617 8.71333 55.275 8.74C55.4217 8.74 55.7083 8.75333 56.135 8.78C56.2683 8.78 56.3617 8.81333 56.415 8.88C56.4817 8.93333 56.515 9.03333 56.515 9.18C56.515 9.54 56.1083 9.72 55.295 9.72C54.5883 9.72 53.7017 9.59333 52.635 9.34C52.7817 9.94 52.9683 10.4933 53.195 11C53.4217 11.4933 53.715 12.0867 54.075 12.78C54.3283 13.2733 54.515 13.66 54.635 13.94C54.755 14.2067 54.815 14.4333 54.815 14.62C54.815 14.7667 54.7683 14.8733 54.675 14.94C54.5817 14.9933 54.4483 15.02 54.275 15.02C53.915 15.02 53.575 14.64 53.255 13.88C52.9483 13.1067 52.595 12.04 52.195 10.68L51.835 9.5C51.5417 9.52667 51.175 9.60667 50.735 9.74C50.695 9.75333 50.555 9.79333 50.315 9.86C50.0883 9.91333 49.8817 9.94 49.695 9.94C49.4817 9.94 49.375 9.81333 49.375 9.56C49.375 9.22667 49.5483 9.00667 49.895 8.9C50.2417 8.78 50.5683 8.71333 50.875 8.7C51.1817 8.67333 51.375 8.65333 51.455 8.64C51.4283 8.13333 51.415 7.68 51.415 7.28C51.415 5.56 51.675 4.07333 52.195 2.82C52.7283 1.55333 53.695 0.919999 55.095 0.919999ZM62.4009 15.02C61.6143 15.02 60.9009 14.8467 60.2609 14.5C59.6343 14.14 59.1409 13.6467 58.7809 13.02C58.4343 12.38 58.2609 11.6533 58.2609 10.84C58.2609 9.50667 58.7476 8.51333 59.7209 7.86C60.7076 7.20667 61.9143 6.88 63.3409 6.88C63.9943 6.88 64.6009 7.04 65.1609 7.36C65.7343 7.68 66.1943 8.14 66.5409 8.74C66.8876 9.34 67.0609 10.0333 67.0609 10.82C67.0609 11.6733 66.8409 12.42 66.4009 13.06C65.9609 13.6867 65.3809 14.1733 64.6609 14.52C63.9543 14.8533 63.2009 15.02 62.4009 15.02ZM62.1809 13.88C63.4209 13.88 64.3609 13.6 65.0009 13.04C65.6409 12.48 65.9609 11.66 65.9609 10.58C65.9609 9.84667 65.7076 9.21333 65.2009 8.68C64.7076 8.14667 64.0143 7.88 63.1209 7.88C62.5209 7.88 61.9143 7.99333 61.3009 8.22C60.6876 8.44667 60.1809 8.78667 59.7809 9.24C59.3809 9.69333 59.1809 10.24 59.1809 10.88C59.1809 11.4133 59.3143 11.9133 59.5809 12.38C59.8476 12.8333 60.2076 13.2 60.6609 13.48C61.1276 13.7467 61.6343 13.88 62.1809 13.88ZM70.4116 15C69.8649 13.9333 69.4316 12.68 69.1116 11.24C68.8049 9.8 68.6516 8.55333 68.6516 7.5C68.6516 7.08667 68.7449 6.82 68.9316 6.7C69.0382 6.63333 69.1182 6.6 69.1716 6.6C69.2649 6.6 69.3316 6.67333 69.3716 6.82C69.4249 6.96667 69.4782 7.23333 69.5316 7.62L69.6316 8.34C69.7782 7.62 70.0582 7.05333 70.4716 6.64C70.8982 6.21333 71.4182 6 72.0316 6C72.7116 6 73.2182 6.13333 73.5516 6.4C73.8849 6.65333 74.0516 7.08 74.0516 7.68C73.3849 7.36 72.7782 7.2 72.2316 7.2C71.7116 7.2 71.2649 7.34 70.8916 7.62C70.5182 7.9 70.2582 8.31333 70.1116 8.86C69.9916 9.23333 69.9316 9.58667 69.9316 9.92C69.9316 10.28 69.9782 10.62 70.0716 10.94C70.1782 11.2467 70.3382 11.6267 70.5516 12.08C70.7516 12.5467 70.9049 12.9467 71.0116 13.28C71.1316 13.6133 71.1982 13.9733 71.2116 14.36C71.2116 14.5867 71.1316 14.7533 70.9716 14.86C70.8116 14.9533 70.6249 15 70.4116 15ZM89.123 15C88.7896 15.0667 88.5563 14.9067 88.423 14.52C88.2896 14.12 88.2163 13.5333 88.203 12.76C88.1763 11.6267 88.1363 10.68 88.083 9.92C88.043 9.14667 87.963 8.45333 87.843 7.84C86.603 8.42667 85.3763 8.96667 84.163 9.46C82.963 9.94 82.363 10.1733 82.363 10.16L82.403 14.42C82.403 14.62 82.283 14.7467 82.043 14.8C81.723 14.8667 81.5096 14.6867 81.403 14.26C81.3096 13.82 81.243 13.1333 81.203 12.2C81.1763 11.36 81.1363 10.7667 81.083 10.42C80.7096 10.6067 80.3896 10.6933 80.123 10.68C80.0696 10.5733 80.043 10.3533 80.043 10.02C80.1496 9.98 80.2763 9.93333 80.423 9.88C80.583 9.82667 80.6963 9.76667 80.763 9.7C80.843 9.62 80.883 9.50667 80.883 9.36C80.883 8.69333 80.8163 7.66667 80.683 6.28C80.5363 5.02667 80.463 3.99333 80.463 3.18L80.483 2.26C80.523 2.16667 80.5696 2.10667 80.623 2.08C80.6896 2.05333 80.7763 2.04 80.883 2.04C81.1096 2.04 81.223 2.11333 81.223 2.26L82.043 9.3C82.4163 9.20667 83.0363 8.96667 83.903 8.58C84.7696 8.19333 86.103 7.56667 87.903 6.7L87.983 2.26C87.983 1.74 88.1763 1.48 88.563 1.48C88.723 1.48 88.8296 1.54 88.883 1.66C88.9496 1.78 88.9696 1.98 88.943 2.26L88.923 5.72C88.923 6.89333 88.9896 8.42 89.123 10.3C89.163 10.6733 89.1963 11.0333 89.223 11.38C89.263 11.7133 89.2963 12.0333 89.323 12.34C89.403 13.1667 89.4563 13.6933 89.483 13.92C89.523 14.1333 89.583 14.3267 89.663 14.5C89.5963 14.7667 89.4163 14.9333 89.123 15ZM95.6041 15.02C94.8174 15.02 94.1041 14.8467 93.4641 14.5C92.8374 14.14 92.3441 13.6467 91.9841 13.02C91.6374 12.38 91.4641 11.6533 91.4641 10.84C91.4641 9.50667 91.9507 8.51333 92.9241 7.86C93.9107 7.20667 95.1174 6.88 96.5441 6.88C97.1974 6.88 97.8041 7.04 98.3641 7.36C98.9374 7.68 99.3974 8.14 99.7441 8.74C100.091 9.34 100.264 10.0333 100.264 10.82C100.264 11.6733 100.044 12.42 99.6041 13.06C99.1641 13.6867 98.5841 14.1733 97.8641 14.52C97.1574 14.8533 96.4041 15.02 95.6041 15.02ZM95.3841 13.88C96.6241 13.88 97.5641 13.6 98.2041 13.04C98.8441 12.48 99.1641 11.66 99.1641 10.58C99.1641 9.84667 98.9107 9.21333 98.4041 8.68C97.9107 8.14667 97.2174 7.88 96.3241 7.88C95.7241 7.88 95.1174 7.99333 94.5041 8.22C93.8907 8.44667 93.3841 8.78667 92.9841 9.24C92.5841 9.69333 92.3841 10.24 92.3841 10.88C92.3841 11.4133 92.5174 11.9133 92.7841 12.38C93.0507 12.8333 93.4107 13.2 93.8641 13.48C94.3307 13.7467 94.8374 13.88 95.3841 13.88ZM114.835 15.02C114.635 15.02 114.515 14.9667 114.475 14.86C114.435 14.74 114.415 14.56 114.415 14.32C114.428 14.2267 114.435 14.12 114.435 14C114.435 13.8667 114.441 13.7667 114.455 13.7C114.535 13.06 114.575 12.4533 114.575 11.88C114.575 10.6133 114.361 9.62667 113.935 8.92C113.508 8.2 112.835 7.84 111.915 7.84C111.408 7.84 110.901 7.96667 110.395 8.22C109.901 8.47333 109.495 8.78667 109.175 9.16C108.868 9.53333 108.715 9.87333 108.715 10.18C108.781 10.5667 108.901 11.04 109.075 11.6C109.088 11.6667 109.141 11.8733 109.235 12.22C109.341 12.5667 109.395 12.88 109.395 13.16L109.415 13.54C109.415 13.7533 109.308 13.86 109.095 13.86C108.828 13.86 108.608 13.6867 108.435 13.34C108.275 12.9933 108.095 12.4533 107.895 11.72C107.695 11 107.501 10.4067 107.315 9.94C107.128 9.47333 106.875 9.07333 106.555 8.74C106.235 8.40667 105.828 8.24 105.335 8.24C104.655 8.24 104.121 8.47333 103.735 8.94C103.361 9.40667 103.175 9.98 103.175 10.66C103.175 11.1133 103.215 11.7133 103.295 12.46C103.361 13.02 103.395 13.5 103.395 13.9C103.395 14.14 103.368 14.32 103.315 14.44C103.261 14.56 103.135 14.62 102.935 14.62C102.668 14.62 102.481 14.5333 102.375 14.36C102.268 14.1733 102.215 13.8933 102.215 13.52C102.215 12.7867 102.175 11.9 102.095 10.86C102.081 10.7267 102.055 10.3867 102.015 9.84C101.975 9.28 101.968 8.72 101.995 8.16L102.015 7.5C102.095 7.42 102.188 7.38 102.295 7.38C102.441 7.38 102.561 7.47333 102.655 7.66C102.761 7.83333 102.815 8.1 102.815 8.46C103.015 8.11333 103.308 7.8 103.695 7.52C104.081 7.24 104.488 7.1 104.915 7.1C105.648 7.1 106.255 7.25333 106.735 7.56C107.228 7.85333 107.675 8.33333 108.075 9C108.448 8.32 109.008 7.74 109.755 7.26C110.515 6.78 111.295 6.54 112.095 6.54C112.921 6.54 113.608 6.85333 114.155 7.48C114.715 8.10667 115.121 8.86 115.375 9.74C115.641 10.62 115.775 11.4333 115.775 12.18C115.775 12.8467 115.715 13.4867 115.595 14.1C115.488 14.7133 115.235 15.02 114.835 15.02ZM122.102 15C121.249 15 120.462 14.8333 119.742 14.5C119.022 14.1667 118.449 13.6933 118.022 13.08C117.595 12.4667 117.382 11.76 117.382 10.96C117.382 10.0667 117.549 9.23333 117.882 8.46C118.215 7.67333 118.702 7.04667 119.342 6.58C119.995 6.1 120.755 5.86 121.622 5.86C122.529 5.86 123.215 6.15333 123.682 6.74C124.149 7.31333 124.369 8.04 124.342 8.92C124.342 9.70667 124.029 10.3067 123.402 10.72C122.789 11.1333 122.002 11.34 121.042 11.34C120.895 11.34 120.675 11.3267 120.382 11.3C119.902 11.2467 119.562 11.1733 119.362 11.08C119.162 10.9867 119.062 10.8 119.062 10.52C119.062 10.4267 119.089 10.36 119.142 10.32C119.195 10.2667 119.302 10.24 119.462 10.24C119.635 10.24 119.942 10.28 120.382 10.36C120.809 10.44 121.189 10.48 121.522 10.48C122.749 10.48 123.362 9.94667 123.362 8.88C123.362 8.24 123.242 7.73333 123.002 7.36C122.775 6.98667 122.369 6.8 121.782 6.8C121.142 6.8 120.569 6.97333 120.062 7.32C119.555 7.65333 119.162 8.09333 118.882 8.64C118.615 9.18667 118.482 9.76667 118.482 10.38C118.482 11.4333 118.775 12.3 119.362 12.98C119.949 13.6467 120.855 13.98 122.082 13.98C122.229 13.98 122.475 13.9667 122.822 13.94C122.969 13.9267 123.149 13.8867 123.362 13.82C123.575 13.7533 123.729 13.7067 123.822 13.68C124.395 13.48 124.815 13.38 125.082 13.38C125.282 13.38 125.435 13.4333 125.542 13.54C125.209 14.0467 124.709 14.42 124.042 14.66C123.389 14.8867 122.742 15 122.102 15Z" fill="black"/>
</svg>
